<?xml version="1.0" encoding="utf-8" ?>
<svg baseProfile="tiny" height="1024" version="1.2" width="1024" xmlns="http://www.w3.org/2000/svg" xmlns:ev="http://www.w3.org/2001/xml-events" xmlns:xlink="http://www.w3.org/1999/xlink"><defs /><path d="M 564.0 555.0 L 460.0 555.0 C 460.0 555.0 455.0 555.0 455.0 550.0 L 455.0 485.0 C 455.0 480.0 452.0 476.0 450.0 475.0 C 430.0 465.0 360.0 420.0 375.0 320.0 C 345.0 327.0 280.0 363.0 260.0 385.0 C 250.0 396.0 420.0 705.0 440.0 700.0 C 460.0 695.0 564.0 695.0 584.0 700.0 C 604.0 705.0 774.0 396.0 764.0 385.0 C 744.0 363.0 679.0 327.0 649.0 320.0 C 664.0 420.0 594.0 465.0 574.0 475.0 C 572.0 476.0 569.0 480.0 569.0 485.0 L 569.0 550.0 C 569.0 555.0 564.0 555.0 564.0 555.0 M 465.0 563.0 L 559.0 563.0 C 559.0 563.0 569.0 563.0 569.0 573.0 L 569.0 573.0 C 569.0 583.0 559.0 583.0 559.0 583.0 L 465.0 583.0 C 465.0 583.0 455.0 583.0 455.0 573.0 L 455.0 573.0 C 455.0 563.0 465.0 563.0 465.0 563.0 M 465.0 590.0 L 559.0 590.0 C 559.0 590.0 569.0 590.0 569.0 600.0 L 569.0 600.0 C 569.0 610.0 559.0 610.0 559.0 610.0 L 465.0 610.0 C 465.0 610.0 455.0 610.0 455.0 600.0 L 455.0 600.0 C 455.0 590.0 465.0 590.0 465.0 590.0 M 480.0 617.0 L 544.0 617.0 C 544.0 617.0 554.0 617.0 554.0 627.0 L 554.0 627.0 C 554.0 637.0 544.0 637.0 544.0 637.0 L 480.0 637.0 C 480.0 637.0 470.0 637.0 470.0 627.0 L 470.0 627.0 C 470.0 617.0 480.0 617.0 480.0 617.0 M 512.0 143.0 L 536.0 185.0 L 571.0 152.0 L 582.0 199.0 L 625.0 178.0 L 621.0 226.0 L 669.0 219.0 L 651.0 263.0 L 698.0 271.0 L 647.0 313.0 C 632.0 248.0 577.0 205.0 512.0 205.0 C 447.0 205.0 392.0 248.0 377.0 313.0 L 326.0 271.0 L 373.0 263.0 L 355.0 219.0 L 403.0 226.0 L 399.0 178.0 L 442.0 199.0 L 453.0 152.0 L 488.0 185.0 L 512.0 143.0 Z" style="fill:#fdba12;stroke:none" /><path d="M 252.0 422.0 C 212.0 452.0 140.0 540.0 130.0 590.0 C 120.0 620.0 280.0 756.0 295.0 745.0 C 335.0 715.0 385.0 696.0 400.0 685.0 C 355.0 625.0 263.0 455.0 252.0 422.0 M 894.0 590.0 C 884.0 540.0 812.0 452.0 772.0 422.0 C 761.0 455.0 669.0 625.0 624.0 685.0 C 639.0 696.0 689.0 715.0 729.0 745.0 C 744.0 756.0 904.0 620.0 894.0 590.0 Z" style="fill:#4c83c3;stroke:none" /><path d="M 132.0 640.0 C 122.0 670.0 111.0 700.0 105.0 750.0 C 102.0 775.0 201.0 819.0 210.0 807.0 C 228.0 783.0 244.0 760.0 255.0 749.0 C 238.0 739.0 152.0 667.0 132.0 640.0 M 919.0 750.0 C 913.0 700.0 902.0 670.0 892.0 640.0 C 872.0 667.0 786.0 739.0 769.0 749.0 C 780.0 760.0 796.0 783.0 814.0 807.0 C 823.0 819.0 922.0 775.0 919.0 750.0 Z" style="fill:#b22c1b;stroke:none" /></svg>